<?xml version="1.0" encoding="UTF-8"?>
<svg id="Layer_1" xmlns="http://www.w3.org/2000/svg" version="1.1" viewBox="0 0 1010.34 342.81">
  <!-- Generator: Adobe Illustrator 30.2.1, SVG Export Plug-In . SVG Version: 2.1.1 Build 1)  -->
  <defs>
    <style>
      .st0 {
        fill: #002f00;
      }
    </style>
  </defs>
  <g>
    <path class="st0" d="M357.09,83.84h33.22c9.24,0,16.92,1.69,23.04,5.06,6.12,3.37,10.67,8.03,13.64,13.97,2.97,5.94,4.45,12.8,4.45,20.57s-1.48,14.63-4.45,20.57c-2.97,5.94-7.52,10.6-13.64,13.97-6.12,3.37-13.81,5.06-23.04,5.06h-33.22v-79.2ZM390.31,145.11c6.6,0,11.44-1.98,14.52-5.94,3.08-3.96,4.62-9.2,4.62-15.73s-1.54-11.77-4.62-15.73c-3.08-3.96-7.92-5.94-14.52-5.94h-12.1v43.34h12.1Z"/>
    <path class="st0" d="M440.03,83.84h61.71v18.92h-40.59v11.55h37.51v17.71h-37.51v12.1h40.59v18.92h-61.71v-79.2Z"/>
    <path class="st0" d="M510.76,83.84h21.12v60.28h35.64v18.92h-56.76v-79.2Z"/>
    <path class="st0" d="M574.89,83.84h21.12v79.2h-21.12v-79.2Z"/>
    <path class="st0" d="M623.46,158.92c-6.2-3.63-10.89-8.54-14.08-14.74-3.19-6.2-4.79-13.11-4.79-20.73s1.6-14.54,4.79-20.73c3.19-6.2,7.88-11.11,14.08-14.74,6.2-3.63,13.55-5.44,22.05-5.44,6.97,0,13.16,1.32,18.59,3.96,5.43,2.64,9.79,6.31,13.09,11,3.3,4.69,5.39,10.01,6.27,15.95h-21.34c-1.1-3.81-3.06-6.84-5.88-9.08-2.82-2.24-6.4-3.35-10.73-3.35-6.45,0-11.22,2.11-14.3,6.33-3.08,4.22-4.62,9.59-4.62,16.11s1.54,11.9,4.62,16.12c3.08,4.22,7.85,6.32,14.3,6.32,4.55,0,8.2-1.26,10.95-3.79,2.75-2.53,4.64-5.88,5.67-10.06h21.34c-.73,6.23-2.71,11.79-5.94,16.67-3.23,4.88-7.57,8.71-13.04,11.5-5.46,2.79-11.79,4.18-18.98,4.18-8.51,0-15.86-1.81-22.05-5.44Z"/>
    <path class="st0" d="M692.04,83.84h21.12v79.2h-21.12v-79.2Z"/>
    <path class="st0" d="M740.6,158.92c-6.2-3.63-10.89-8.54-14.08-14.74-3.19-6.2-4.79-13.11-4.79-20.73s1.6-14.54,4.79-20.73c3.19-6.2,7.88-11.11,14.08-14.74,6.2-3.63,13.55-5.44,22.05-5.44s15.97,1.81,22.17,5.44c6.2,3.63,10.89,8.54,14.08,14.74,3.19,6.2,4.79,13.11,4.79,20.73s-1.59,14.54-4.79,20.73c-3.19,6.2-7.88,11.11-14.08,14.74-6.2,3.63-13.58,5.44-22.17,5.44s-15.86-1.81-22.05-5.44ZM777.07,139.61c3.08-4.18,4.62-9.57,4.62-16.17s-1.54-11.99-4.62-16.17-7.88-6.27-14.41-6.27-11.22,2.11-14.3,6.33c-3.08,4.22-4.62,9.59-4.62,16.11s1.54,11.9,4.62,16.12c3.08,4.22,7.85,6.32,14.3,6.32s11.33-2.09,14.41-6.27Z"/>
    <path class="st0" d="M828.11,160.73c-5.28-2.42-9.42-6.01-12.43-10.78-3.01-4.77-4.51-10.6-4.51-17.49v-48.62h21.12v48.62c0,4.47,1.23,7.87,3.68,10.18,2.46,2.31,5.85,3.46,10.18,3.46s7.7-1.17,10.12-3.52c2.42-2.35,3.63-5.72,3.63-10.12v-48.62h21.23v48.62c0,6.89-1.5,12.72-4.51,17.49-3.01,4.77-7.15,8.36-12.43,10.78-5.28,2.42-11.29,3.63-18.04,3.63s-12.76-1.21-18.04-3.63Z"/>
    <path class="st0" d="M903.95,160.9c-5.24-2.31-9.22-5.56-11.93-9.73-2.71-4.18-4.07-9.06-4.07-14.63h20.46c.07,4.47,1.49,7.52,4.24,9.13,2.75,1.61,6.51,2.42,11.27,2.42,3.59,0,6.49-.68,8.69-2.04,2.2-1.36,3.3-3.17,3.3-5.44,0-1.32-.4-2.48-1.21-3.46-.81-.99-2.44-1.91-4.89-2.75-2.46-.84-6.03-1.63-10.73-2.37-10.49-1.54-18.08-4.38-22.77-8.52-4.69-4.14-7.04-9.81-7.04-17,0-4.62,1.26-8.73,3.79-12.32,2.53-3.59,6.23-6.44,11.11-8.52,4.88-2.09,10.69-3.14,17.43-3.14,10.34,0,18.41,2.29,24.2,6.88,5.79,4.58,8.91,11.35,9.35,20.29h-20.02c-.15-3.81-1.34-6.58-3.58-8.3-2.24-1.72-5.55-2.59-9.96-2.59-3.23,0-5.83.61-7.81,1.82-1.98,1.21-2.97,2.84-2.97,4.9s1.1,3.87,3.3,5.22c2.2,1.36,6.31,2.51,12.32,3.47,7.77,1.17,13.95,2.82,18.54,4.95,4.58,2.13,7.85,4.8,9.79,8.03,1.94,3.23,2.92,7.19,2.92,11.88,0,8.29-3.21,14.58-9.62,18.86-6.42,4.29-14.79,6.44-25.13,6.44-7.41,0-13.73-1.15-18.98-3.46Z"/>
  </g>
  <g>
    <path class="st0" d="M357.07,177.94h35.27c6.5,0,12.07,1.13,16.7,3.4,4.64,2.26,8.14,5.44,10.52,9.53,2.37,4.09,3.56,8.8,3.56,14.13s-1.19,10.04-3.56,14.13c-2.37,4.09-5.88,7.27-10.52,9.53-4.64,2.26-10.21,3.4-16.7,3.4h-14.24v24.76h-21.03v-78.87ZM390.7,214.2c3.8,0,6.64-.71,8.54-2.14,1.9-1.42,2.85-3.78,2.85-7.06s-.95-5.64-2.85-7.07c-1.9-1.42-4.75-2.14-8.54-2.14h-12.6v18.4h12.6Z"/>
    <path class="st0" d="M431.66,177.94h21.03v60.03h35.49v18.84h-56.52v-78.87Z"/>
    <path class="st0" d="M545.91,244.65h-31l-3.94,12.16h-21.36l28.15-78.87h25.3l29.14,78.87h-22.35l-3.94-12.16ZM540.22,227.23l-9.75-29.79-9.75,29.79h19.5Z"/>
    <path class="st0" d="M598.16,207.84v48.96h-20.05v-78.87h22.46l28.04,48.85v-48.85h20.16v78.87h-22.46l-28.15-48.96Z"/>
    <path class="st0" d="M660.49,177.94h61.45v18.84h-40.42v11.5h37.35v17.64h-37.35v12.05h40.42v18.84h-61.45v-78.87Z"/>
    <path class="st0" d="M749.66,196.78h-23.44v-18.84h68.02v18.84h-23.44v60.03h-21.14v-60.03Z"/>
  </g>
  <path class="st0" d="M264.38,175.83H70c.14,1.47.31,2.93.5,4.38h224.33c.21-1.46.38-2.91.53-4.38h-30.99Z"/>
  <path class="st0" d="M103.46,185.78h-33.24c.72,3.87,1.63,7.67,2.72,11.39h219.5c1.09-3.72,2-7.52,2.71-11.39H103.46Z"/>
  <path class="st0" d="M287.75,202.74H74.73c.52,1.47,1.06,2.93,1.64,4.38h212.63c.58-1.45,1.12-2.91,1.64-4.38h-2.89Z"/>
  <path class="st0" d="M276.33,212.7H78.76c1.81,3.92,3.82,7.72,6.05,11.39h195.76c2.22-3.66,4.24-7.47,6.05-11.39h-10.29Z"/>
  <path class="st0" d="M134.27,229.66h-45.86c1.02,1.49,2.08,2.94,3.17,4.38h182.21c1.09-1.44,2.15-2.89,3.17-4.38h-142.69Z"/>
  <path class="st0" d="M139.16,239.61h-43.06c3.5,4.05,7.29,7.86,11.32,11.39h150.54c4.03-3.53,7.81-7.33,11.32-11.39h-130.11Z"/>
  <path class="st0" d="M134.38,256.57h-20.08c2.05,1.53,4.15,2.99,6.29,4.38h124.17c2.15-1.39,4.25-2.85,6.29-4.38h-116.68Z"/>
  <path class="st0" d="M137.46,266.53h-7.26c10.75,5.57,22.5,9.47,34.91,11.39,5.73.88,11.6,1.34,17.58,1.34s11.86-.46,17.59-1.34c12.41-1.91,24.16-5.82,34.91-11.39h-97.72Z"/>
  <path class="st0" d="M294.64,164.37c0-.67-.04-1.33-.05-2h-4.94c-.14.12-.27.24-.41.36-.09-.12-.19-.25-.29-.36h-52.1c-.13-3.29-.56-6.53-1.29-9.7l25.85-7.01-1.14-4.22-25.86,7.01c-.49-1.54-1.05-3.06-1.69-4.56-.63-1.47-1.31-2.91-2.06-4.31l22.92-13.37c-.59-.92-1.32-2.23-2.01-3.9l-23.13,13.49c-1.73-2.69-3.71-5.22-5.92-7.57l19.22-19.24-3.1-3.1-19.24,19.27c-2.4-2.17-4.97-4.1-7.7-5.79l15.57-27.52c-.59-1.53-1.09-3.22-1.47-5.05-.06-.31-.12-.63-.17-.94l-17.74,31.37c-1.12-.56-2.25-1.1-3.41-1.59-1.82-.77-3.66-1.43-5.53-1.99l6.52-25.6-4.24-1.08-6.53,25.61c-3.13-.66-6.32-1.02-9.56-1.1l-.78-59.02c-.56,0-1.11-.04-1.66-.04-.91,0-1.81.05-2.72.07l.78,59.07c-3.22.18-6.39.65-9.5,1.4l-7.07-26-4.22,1.15,7.09,26.07c-1.32.44-2.63.93-3.92,1.48-1.69.71-3.33,1.51-4.92,2.39l-30.67-51.02c-1.27.72-2.53,1.46-3.77,2.23l30.69,51.06c-2.66,1.77-5.16,3.78-7.49,6.02l-19.5-18.98-3.06,3.14,19.53,19.01c-2.14,2.43-4.04,5.02-5.7,7.78l-25.17-13.8,26.85,14.72c.27.15.49.34.66.56.35.45.52,1.02.46,1.58-.03.28-.11.56-.26.83-.4.73-1.15,1.14-1.92,1.14-.36,0-.72-.09-1.05-.27l-1.67-.91c-.45.91-.88,1.85-1.28,2.79-.85,2.02-1.58,4.09-2.17,6.19l-26.15-6.45-1.05,4.25,26.18,6.46c-.51,2.63-.83,5.32-.94,8.03h-57.78s0,0,0,0c-.5.42-.94.84-1.37,1.25-.28.28-.56.55-.81.82v-.04c0-.22,0-.44,0-.66h0c0-.46,0-.92.02-1.38h-.01c-.01.67-.05,1.33-.05,2h-2.31c-.03.8-.09,1.59-.11,2.38h6.76s.09-.08.13-.12c.2-.19.4-.37.61-.55.17.23.35.44.55.65,0,0,0,0,0,.01h220.63c-.02-.8-.08-1.59-.11-2.38h-2.25ZM226.04,162.37c-1.14-22.34-19.62-40.12-42.25-40.12s-41.11,17.77-42.25,40.12h-6.42c.25-5.8,1.52-11.44,3.78-16.77,2.45-5.8,5.97-11.01,10.44-15.49,4.47-4.48,9.68-7.98,15.49-10.44,6.01-2.54,12.39-3.82,18.96-3.82s12.96,1.28,18.96,3.82c5.8,2.46,11.01,5.97,15.49,10.44,4.47,4.47,7.99,9.69,10.44,15.49,2.25,5.34,3.52,10.97,3.78,16.77h-6.42Z"/>
  <polygon class="st0" points="67.22 166.75 67.51 166.75 67.22 166.74 67.22 166.75"/>
  <path class="st0" d="M75.07,166.75h.12v-.12s-.09.08-.12.12"/>
  <path class="st0" d="M70.78,163.75c0,.22,0,.44,0,.66v.04c.25-.27.53-.55.8-.82-.04.04-.09.08-.13.12h-.66Z"/>
  <polyline class="st0" points="72.95 162.37 72.95 162.37 72.95 162.37"/>
  <path class="st0" d="M289.24,162.73c.14-.12.28-.24.41-.36h-.7c.1.12.2.24.29.36"/>
  <path class="st0" d="M140.58,138.74c.35.45.52,1.02.46,1.58.06-.56-.11-1.13-.46-1.58"/>
  <path class="st0" d="M296.55,163.75c0-.46-.01-.92-.02-1.38h-1.94c.01.67.05,1.33.05,2h2.24c0-.2-.02-.41-.03-.61h-.31Z"/>
  <path class="st0" d="M123.74,69.2l.02.03c1.24-.77,2.5-1.51,3.77-2.23l-.03-.06-3.75,2.25Z"/>
  <path class="st0" d="M68.51,162.37c-.04.66-.06,1.33-.09,2h2.31c0-.67.04-1.33.05-2h-2.27Z"/>
  <path class="st0" d="M179.96,51.93v.55c.91-.02,1.81-.07,2.72-.07.56,0,1.11.03,1.67.04v-.58s-4.39.06-4.39.06Z"/>
  <path class="st0" d="M270.51,110.22c1.41-4.76-.05-10.05-3.06-13.17.39-1.63.58-3.14.64-4.51.71.84,1.41,1.7,2.09,2.57,2.95,3.72,5.64,7.61,8.07,11.64l.28-.16c-9.42-15.56-22.51-28.66-38.08-38.08l-.14.25c1.03.62,2.04,1.26,3.06,1.91,6.93,4.51,13.3,9.74,19.06,15.63.26.57.84,2.06.97,4.29.06,1.08.03,2.4-.22,3.94-.28-.06-.56-.11-.84-.15-6.12-.71-11.58,4.64-12.63,11.89-1,6.91.31,12.36,1.84,16.05l18.49-10.79c.17-.43.33-.87.46-1.31"/>
  <path class="st0" d="M78.4,131.1c1-.63,2.09-1.17,3.27-1.62.08.27.18.54.29.8,2.44,5.66,9.8,7.71,16.61,4.99,5.59-2.23,9.38-5.41,11.87-8.27l-13.75-7.54-6.69-3.67c-4.07,1.55-7.23,5.04-8.29,8.74-1.63.48-3.04,1.08-4.26,1.72,2.73-7.53,6.27-14.72,10.55-21.49,5.8,2.41,13.17-.33,17.71-6.58,6.11-8.44,7.08-16.46,7-21.1-25.08,20.15-41.32,50.84-41.93,85.3h0c.17-9.54,1.54-18.94,4.08-28.04.35-.5,1.43-1.89,3.53-3.22"/>
  <path class="st0" d="M280.45,110.54c1.39,2.52,2.68,5.1,3.87,7.72.06.6.12,2.36-.63,4.73-.36,1.12-.85,2.24-1.47,3.34-.24-.16-.48-.3-.74-.43-5.51-2.76-12.46.4-15.93,6.86-6.49,12.09-2.66,21.93-2.66,21.93,0,0,14.96-3.16,20.84-11.11,2.96-3.99,3.4-9.46,1.63-13.42.94-1.41,1.63-2.78,2.16-4.06.12.33.24.65.35.98,1.11,3.13,2.24,6.34,3.28,9.59-2.37-9.28-5.91-18.09-10.44-26.29l-.27.16Z"/>
  <path class="st0" d="M110.45,127.01l25.7,14.09-25.7-14.09Z"/>
  <path class="st0" d="M75.81,166.09c-.21.18-.41.36-.61.55v.12h1.17s0,0-.01-.01c-.19-.21-.38-.43-.55-.65"/>
  <path class="st0" d="M70.79,162.37c0,.46,0,.92-.01,1.38h.66s.09-.08.13-.12c.43-.42.88-.84,1.37-1.25h0s-2.16,0-2.16,0Z"/>
  <path class="st0" d="M87.9,109.65l-1.92-1.05-1.05,1.92c.58-1.06,1.91-1.45,2.97-.87"/>
  <path class="st0" d="M270.06,111.53c-1.22,3.09-3.44,5.99-5.82,8.47l16.22-9.46c-.7-1.28-1.44-2.54-2.19-3.79l-8.2,4.79Z"/>
  <path class="st0" d="M85.8,113.49c-1.06-.58-1.45-1.91-.87-2.97l-1.05,1.92,6.13,3.36-4.21-2.31Z"/>
  <polygon class="st0" points="90.01 115.79 90.01 115.79 96.7 119.47 90.01 115.79"/>
  <path class="st0" d="M278.54,106.59l-.28.16c.75,1.25,1.49,2.52,2.19,3.79l.27-.16c-.71-1.28-1.43-2.55-2.19-3.79"/>
  <path class="st0" d="M270.06,111.53l-18.49,10.78c.69,1.67,1.43,2.98,2.01,3.9l10.65-6.21c2.38-2.47,4.6-5.38,5.82-8.47"/>
  <path class="st0" d="M238.35,67.58c.66.38,1.32.78,1.97,1.17l.14-.25c-1.25-.75-2.52-1.47-3.8-2.18l-2.37,4.19c.04.21.09.42.13.63-.18.02-.36.05-.54.09l-8.27,14.61c.05.31.1.63.17.94.38,1.84.88,3.52,1.47,5.05l11.87-20.98c-.2-1.2-.47-2.29-.78-3.29"/>
  <path class="st0" d="M136.14,141.1h0l1.67.91c.33.18.69.27,1.05.27.78,0,1.53-.41,1.92-1.14.15-.27.23-.55.26-.83.06-.56-.11-1.13-.46-1.58-.18-.22-.4-.41-.66-.56l-26.85-14.72c-.64,1.05-1.5,2.27-2.63,3.56l25.7,14.09Z"/>
  <path class="st0" d="M85.8,113.49l4.21,2.31c.52-.19,1.05-.36,1.6-.49,1.86-.45,3.87-.54,5.9-.39l-9.59-5.26h0c-1.06-.58-2.39-.19-2.97.87s-.19,2.39.87,2.97"/>
  <path class="st0" d="M97.5,114.91l-9.6-5.26,9.6,5.26Z"/>
  <path class="st0" d="M97.5,114.91c-2.03-.15-4.04-.06-5.9.39-.54.13-1.07.3-1.59.49l6.7,3.67,13.74,7.54c1.13-1.29,1.98-2.51,2.63-3.56l-12.2-6.69-3.38-1.85Z"/>
  <path class="st0" d="M296.55,163.75h.31c-.16-3.22-.42-6.41-.84-9.58.25,2.71.44,5.44.5,8.2,0,.46.02.92.02,1.38"/>
  <path class="st0" d="M193.98,51.12c.37.04.73.09,1.1.14-.37-.04-.73-.1-1.1-.14"/>
  <path class="st0" d="M182.65,50.52c-.07,0-.15,0-.22,0,1.82,0,3.63.05,5.43.14-1.73-.09-3.47-.14-5.22-.14"/>
  <path class="st0" d="M187.99,50.66c1.32.06,2.63.19,3.94.3-1.31-.12-2.62-.23-3.94-.3"/>
  <path class="st0" d="M237.2,65.39h0l-.35.63c-.22-1.01-2.58-.89-2.95-1.79-.23-.56-.5-.89-.77-1.08-.02,0-.03-.02-.05-.03-.81-.5-1.67.25-1.99-.06-4.6-2.21-9.46-4.04-14.25-5.92-11.04-3.53-22.54-5.32-34.31-5.32-15.2,0-29.95,2.97-43.82,8.85-9.01,3.82-17.41,8.75-25.09,14.71-.31.25-.63.51-.94.76.01.29.03.6.03.93,3.52-2.83,7.21-5.45,11.06-7.84l-.02-.03,3.76-2.26.03.06c15.55-8.85,33.41-14.06,52.44-14.52v-.55s4.38-.06,4.38-.06v.59c18.95.28,36.76,5.27,52.32,13.87l.53-.93Z"/>
  <path class="st0" d="M296.52,162.37l-1.1-6.2c-.49-6.54-2.21-13.11-4.26-19.5,2.11,8.24,3.27,16.84,3.42,25.69h1.94Z"/>
  <path class="st0" d="M112.71,77.07c0-.33-.02-.64-.03-.93-25.3,20.79-42.15,52.14-44.16,86.22h2.27c.61-34.45,16.84-65.15,41.93-85.3"/>
  <path class="st0" d="M233.89,64.23c.37.9,2.73.78,2.95,1.79l.36-.63c-1.34-.78-2.7-1.52-4.07-2.24.27.19.53.51.77,1.08"/>
  <path class="st0" d="M240.95,67.66l-.48.85c15.56,9.42,28.66,22.51,38.08,38.07l.41-.24c-9.63-15.62-22.66-28.96-38.01-38.68"/>
  <path class="st0" d="M138.7,60.67c13.88-5.87,28.62-8.85,43.82-8.85,11.77,0,23.28,1.79,34.31,5.32,4.79,1.88,9.65,3.71,14.25,5.92.32.31,1.18-.44,1.99.06-11.68-6.15-24.48-10.28-38-11.87-.37-.04-.73-.1-1.1-.13-.68-.07-1.36-.11-2.04-.17-1.31-.11-2.62-.23-3.95-.3h-.12c-1.8-.09-3.61-.13-5.43-.14-25.86.05-49.69,9.46-68.82,24.86,7.68-5.96,16.07-10.89,25.09-14.71"/>
  <path class="st0" d="M280.72,110.38c4.53,8.2,8.07,17.01,10.44,26.29,2.06,6.4,3.77,12.96,4.26,19.5l1.1,6.2c-.06-2.76-.25-5.49-.5-8.2-2.04-15.68-7.21-30.63-14.84-44.05l-.45.26Z"/>
  <path class="st0" d="M281.18,110.12c-.72-1.27-1.46-2.53-2.22-3.77l-.41.24c.75,1.25,1.48,2.52,2.19,3.79l.45-.26Z"/>
  <path class="st0" d="M237.2,65.39l-.53.93c1.28.71,2.55,1.43,3.79,2.19l.48-.85c-1.23-.78-2.49-1.53-3.75-2.27"/>
  <path class="st0" d="M315.63,121.1c-6.76-2.82-14.16-.88-16.68,4.74-.06.12-.1.24-.15.36-2.43-1.01-5.34-3.02-8.03-6.97-.04-.09-.08-.19-.12-.29-3.91-9.24-8.94-17.85-15.02-25.74,1.35.27,2.57.37,3.63.38.29,0,.57,0,.84-.02,2.38,3.79,7.51,6.46,12.67,5.95,9.84-.97,20.24-12.19,20.24-12.19,0,0-6.48-8.33-20.2-8.97-7.32-.34-13.6,4.01-14.06,10.16,0,.13-.01.26-.01.39-2.65-.12-6.12-1.03-10.04-3.88-1.01-1.09-2.04-2.16-3.1-3.22-6.09-6.09-12.74-11.43-19.9-15.99,1.35-.21,2.53-.53,3.52-.89.27-.09.53-.2.79-.3,3.53,2.75,9.27,3.5,13.94,1.25,8.92-4.28,14.84-18.38,14.84-18.38,0,0-8.94-5.61-22.04-1.52-7,2.19-11.41,8.42-9.73,14.36.03.12.07.25.12.37-2.51.79-6.04,1.12-10.64-.18-2.62-1.35-5.3-2.61-8.03-3.76-14.41-6.1-29.71-9.18-45.48-9.18s-31.07,3.09-45.48,9.18c-10,4.23-19.27,9.77-27.67,16.54-5.44.77-17.1,3.09-23.21,9.36-5.19,5.33-6.01,14.11-2.24,19.03-3.48,5.46-6.51,11.22-9.05,17.24-.12.28-.23.56-.35.84-.44-1.29-.96-2.39-1.48-3.31-.14-.25-.29-.49-.44-.72,2.1-3.96,1.84-9.74-1.19-13.95-5.76-8.04-20.68-11.43-20.68-11.43,0,0-3.97,9.78,2.33,21.97,3.37,6.51,10.28,9.78,15.83,7.1.12-.06.23-.12.34-.18,1.21,2.33,2.15,5.73,1.68,10.47-2.99,9.61-4.71,19.56-5.13,29.72-.87-1.08-1.74-1.94-2.55-2.63-.22-.19-.44-.36-.66-.53.62-4.44-1.61-9.78-5.88-12.7-8.17-5.58-23.34-3.66-23.34-3.66,0,0-.39,10.55,9.71,19.85,1.94,1.78,4.16,3.02,6.42,3.66,2.4.69,4.83.7,6.98,0,1.46-.47,2.79-1.27,3.89-2.41.09-.09.18-.19.26-.28.77.71,1.51,4.85,2.25,5.96h.88s2.98.07,2.98.07v-2.99h.02c.33-63.39,51.98-114.85,115.44-114.85s115.12,51.46,115.45,114.85h.01v.45c0,.05,0,.11,0,.16h0v2.38h3.26c-.67-1.33-1.26-6.23-1.72-8.06-.48-10.09-2.25-19.96-5.26-29.51,1.17.71,2.27,1.22,3.25,1.58.27.1.54.19.8.28.94,4.38,4.85,8.64,9.87,9.92,9.58,2.45,23.19-4.54,23.19-4.54,0,0-3.24-10.05-15.91-15.33"/>
  <path class="st0" d="M112.68,76.14c.31-.25.62-.51.94-.77-.31.24-.63.47-.94.72v.05"/>
  <path class="st0" d="M298.15,164.37c0-.06,0-.11,0-.16v.16h0Z"/>
  <polygon class="st0" points="237.2 65.39 237.2 65.39 237.23 65.34 237.2 65.39"/>
  <path class="st0" d="M67.84,162.37c1.34-62,52.02-111.85,114.34-111.85.09,0,.17,0,.25,0,.07,0,.14,0,.22,0,1.75,0,3.49.06,5.22.14h.12c1.32.07,2.63.19,3.94.3.68.06,1.36.1,2.04.17.37.04.73.09,1.1.13,53.58,6.02,95.94,49.04,100.95,102.92.41,3.16.68,6.36.84,9.58h1.28c-.33-63.38-51.99-114.85-115.45-114.85s-115.11,51.47-115.45,114.85h.58c0-.46.01-.92.02-1.38"/>
  <path class="st0" d="M233.12,63.15s-.03-.02-.05-.03c.01,0,.03.02.05.03"/>
  <path class="st0" d="M233.12,63.15c1.37.72,2.73,1.46,4.07,2.24l.03-.06,3.81,2.16-.09.16c15.35,9.72,28.38,23.07,38.01,38.68l.98-.57,2.21,3.78-.97.56c7.63,13.42,12.8,28.37,14.84,44.05-5.01-53.88-47.37-96.89-100.95-102.91,13.52,1.59,26.32,5.72,38,11.87.01,0,.03.01.05.03"/>
  <path class="st0" d="M112.68,76.14v-.05c.31-.25.63-.48.94-.72,19.13-15.4,42.96-24.8,68.82-24.85-.09,0-.17,0-.25,0-62.32,0-113,49.85-114.34,111.86h.67c2.02-34.09,18.87-65.44,44.16-86.23"/>
  <path class="st0" d="M191.94,50.96c.68.06,1.37.09,2.04.17-.67-.07-1.36-.11-2.04-.17"/>
  <path class="st0" d="M187.87,50.66s.08,0,.12,0c-.04,0-.08,0-.12,0"/>
  <path class="st0" d="M282.14,109.55l-2.21-3.79-.98.57c.77,1.25,1.5,2.5,2.22,3.78l.97-.56Z"/>
  <path class="st0" d="M241.04,67.5l-3.81-2.16-.03.06c1.26.73,2.51,1.48,3.75,2.26l.09-.16Z"/>
  <path class="st0" d="M296.88,164.37c.03.79.09,1.59.11,2.38h1.15v-2.38h-1.26Z"/>
  <path class="st0" d="M298.14,163.75h-.01c0,.15.01.3.01.45v-.45Z"/>
  <path class="st0" d="M67.22,164.37c0-.21.01-.41.02-.61h-.02v2.99h.28s.32,0,.32,0h.48c.02-.8.08-1.59.11-2.38h-1.2Z"/>
  <path class="st0" d="M68.42,164.37c.03-.67.05-1.33.09-2h-.67c0,.46-.02.92-.02,1.38h-.58c0,.2-.02.41-.02.61h1.2Z"/>
  <path class="st0" d="M296.88,164.37h1.26v-.16c0-.16,0-.3,0-.45h-1.28c.01.2.02.41.03.61"/>
</svg>