<?xml version="1.0" encoding="UTF-8"?>
<svg id="Layer_1" xmlns="http://www.w3.org/2000/svg" version="1.1" viewBox="0 0 1080 1080">
  <!-- Generator: Adobe Illustrator 30.2.1, SVG Export Plug-In . SVG Version: 2.1.1 Build 1)  -->
  <defs>
    <style>
      .st0 {
        fill: #002f00;
      }
    </style>
  </defs>
  <path class="st0" d="M760.02,577.6H236.52c.37,3.95.82,7.88,1.35,11.8h604.18c.56-3.92,1.03-7.85,1.44-11.8h-83.46Z"/>
  <path class="st0" d="M326.62,604.41h-89.52c1.93,10.42,4.38,20.64,7.32,30.67h591.18c2.94-10.02,5.39-20.25,7.3-30.67H326.62Z"/>
  <path class="st0" d="M822.96,650.09H249.24c1.39,3.97,2.86,7.9,4.41,11.8h572.68c1.56-3.9,3.02-7.83,4.41-11.8h-7.79Z"/>
  <path class="st0" d="M792.2,676.9H260.1c4.87,10.55,10.3,20.8,16.29,30.67h527.22c5.98-9.87,11.43-20.11,16.29-30.67h-27.7Z"/>
  <path class="st0" d="M409.6,722.58h-123.51c2.75,4.01,5.61,7.93,8.53,11.8h490.74c2.94-3.87,5.78-7.79,8.53-11.8h-384.3Z"/>
  <path class="st0" d="M422.78,749.39h-115.98c9.43,10.91,19.62,21.17,30.48,30.67h405.45c10.86-9.5,21.04-19.75,30.48-30.67h-350.42Z"/>
  <path class="st0" d="M409.91,795.07h-54.08c5.52,4.11,11.17,8.05,16.95,11.8h334.43c5.79-3.75,11.45-7.69,16.95-11.8h-314.25Z"/>
  <path class="st0" d="M418.19,821.88h-19.56c28.96,14.99,60.6,25.51,94.01,30.67,15.43,2.38,31.25,3.62,47.35,3.62s31.93-1.24,47.36-3.62c33.42-5.16,65.06-15.67,94.01-30.67h-263.18Z"/>
  <path class="st0" d="M841.51,546.73c0-1.8-.1-3.58-.13-5.38h-13.31c-.37.33-.73.65-1.1.98-.26-.34-.52-.66-.79-.98h-140.33c-.35-8.86-1.52-17.58-3.47-26.11l69.62-18.88-3.08-11.38-69.64,18.88c-1.32-4.15-2.83-8.24-4.54-12.27-1.68-3.97-3.53-7.84-5.54-11.61l61.74-36.01c-1.58-2.47-3.56-6-5.42-10.5l-62.29,36.33c-4.67-7.23-10-14.05-15.94-20.39l51.76-51.83-8.35-8.34-51.83,51.9c-6.47-5.84-13.39-11.05-20.75-15.61l41.94-74.12c-1.58-4.13-2.94-8.66-3.97-13.61-.17-.85-.33-1.7-.45-2.54l-47.79,84.49c-3.01-1.52-6.07-2.95-9.2-4.27-4.89-2.07-9.86-3.85-14.9-5.35l17.57-68.95-11.43-2.91-17.58,68.98c-8.42-1.76-17.02-2.75-25.74-2.97l-2.09-158.96c-1.5-.02-2.98-.12-4.48-.12-2.45,0-4.88.13-7.32.19l2.1,159.08c-8.67.49-17.22,1.74-25.58,3.76l-19.05-70.03-11.38,3.09,19.1,70.2c-3.56,1.18-7.08,2.51-10.57,3.98-4.55,1.92-8.98,4.06-13.26,6.43l-82.59-137.42c-3.43,1.94-6.82,3.92-10.15,6l82.65,137.52c-7.16,4.76-13.91,10.17-20.17,16.21l-52.52-51.12-8.23,8.45,52.59,51.19c-5.76,6.54-10.88,13.53-15.34,20.96l-67.79-37.18,72.3,39.65c.72.4,1.31.91,1.79,1.51.95,1.21,1.4,2.74,1.24,4.26-.07.77-.3,1.52-.7,2.23-1.07,1.96-3.09,3.07-5.17,3.07-.96,0-1.94-.23-2.83-.72l-4.49-2.46c-1.21,2.46-2.36,4.97-3.44,7.51-2.3,5.45-4.25,11.01-5.85,16.66l-70.42-17.38-2.83,11.45,70.51,17.41c-1.38,7.09-2.23,14.32-2.53,21.63h-155.62s-.01.01-.01.01c-1.34,1.13-2.54,2.25-3.69,3.38-.75.74-1.5,1.49-2.17,2.22v-.12c0-.59.01-1.17.02-1.76h-.01c.01-1.24.02-2.48.05-3.73h-.03c-.04,1.8-.14,3.58-.14,5.38h-6.22c-.08,2.15-.24,4.27-.29,6.42h18.21c.12-.1.23-.21.35-.31.53-.5,1.07-.99,1.64-1.47.45.62.94,1.2,1.47,1.75.01.01.01.02.02.04h594.22c-.05-2.15-.21-4.27-.3-6.42h-6.05ZM656.76,541.36c-3.07-60.18-52.84-108.04-113.79-108.04s-110.71,47.86-113.78,108.04h-17.3c.68-15.63,4.1-30.8,10.18-45.18,6.61-15.62,16.07-29.65,28.12-41.71,12.05-12.05,26.08-21.5,41.71-28.12,16.17-6.84,33.36-10.3,51.07-10.3s34.9,3.46,51.08,10.3c15.62,6.62,29.65,16.07,41.71,28.12,12.05,12.05,21.52,26.09,28.12,41.71,6.07,14.37,9.49,29.55,10.17,45.18h-17.29Z"/>
  <polygon class="st0" points="229.02 553.15 229.79 553.15 229.02 553.13 229.02 553.15"/>
  <path class="st0" d="M250.17,553.15h.34v-.31c-.1.1-.23.21-.34.31"/>
  <path class="st0" d="M238.61,545.08c0,.59-.01,1.18-.01,1.76v.12c.67-.73,1.42-1.47,2.16-2.22-.1.12-.24.22-.36.34h-1.79Z"/>
  <polyline class="st0" points="244.45 541.37 244.46 541.36 244.45 541.37"/>
  <path class="st0" d="M826.97,542.34c.37-.32.74-.65,1.1-.98h-1.88c.27.31.53.64.78.98"/>
  <path class="st0" d="M426.6,477.71c.95,1.21,1.39,2.74,1.24,4.26.15-1.52-.29-3.05-1.24-4.26"/>
  <path class="st0" d="M846.65,545.08c-.01-1.24-.04-2.48-.06-3.73h-5.21c.03,1.8.14,3.58.14,5.38h6.04c-.02-.55-.05-1.1-.07-1.65h-.84Z"/>
  <path class="st0" d="M381.25,290.42l.06.09c3.33-2.08,6.73-4.06,10.15-6l-.09-.16-10.11,6.07Z"/>
  <path class="st0" d="M232.5,541.36c-.1,1.79-.17,3.59-.24,5.38h6.21c0-1.8.1-3.58.14-5.38h-6.11Z"/>
  <path class="st0" d="M532.67,243.92l.02,1.49c2.44-.06,4.85-.19,7.3-.19,1.51,0,2.98.09,4.49.12l-.02-1.57-11.8.15Z"/>
  <path class="st0" d="M776.54,400.91c3.81-12.82-.13-27.08-8.23-35.47,1.06-4.4,1.57-8.45,1.73-12.15,1.9,2.28,3.79,4.57,5.63,6.91,7.94,10.03,15.19,20.49,21.75,31.35l.74-.43c-25.37-41.92-60.63-77.19-102.55-102.55l-.37.66c2.76,1.67,5.5,3.39,8.23,5.16,18.66,12.15,35.83,26.24,51.32,42.09.71,1.54,2.25,5.55,2.62,11.56.17,2.9.08,6.47-.59,10.6-.74-.17-1.5-.3-2.26-.39-16.49-1.92-31.18,12.49-34.01,32.02-2.68,18.61.85,33.29,4.96,43.22l49.8-29.05c.46-1.16.88-2.35,1.23-3.53"/>
  <path class="st0" d="M259.12,457.15c2.68-1.71,5.63-3.16,8.81-4.35.22.73.48,1.45.79,2.15,6.58,15.25,26.4,20.76,44.74,13.45,15.05-6.01,25.25-14.56,31.98-22.27l-37.03-20.31-18.02-9.89c-10.96,4.18-19.47,13.59-22.32,23.54-4.38,1.3-8.19,2.9-11.48,4.62,7.36-20.27,16.88-39.64,28.41-57.88,15.63,6.5,35.48-.88,47.69-17.73,16.46-22.72,19.07-44.32,18.84-56.84-67.55,54.26-111.28,136.93-112.92,229.72h.02c.46-25.7,4.15-51.02,10.98-75.53.94-1.35,3.85-5.09,9.5-8.67"/>
  <path class="st0" d="M803.31,401.77c3.74,6.79,7.22,13.72,10.43,20.8.15,1.63.31,6.36-1.7,12.75-.96,3.02-2.29,6.04-3.95,9-.64-.42-1.3-.8-2-1.15-14.84-7.44-33.57,1.08-42.9,18.47-17.49,32.57-7.18,59.07-7.18,59.07,0,0,40.29-8.52,56.14-29.93,7.97-10.74,9.15-25.49,4.4-36.15,2.52-3.81,4.4-7.49,5.82-10.93.32.88.64,1.75.95,2.64,2.98,8.44,6.03,17.08,8.84,25.82-6.39-25-15.92-48.73-28.12-70.8l-.73.42Z"/>
  <path class="st0" d="M345.44,446.12l69.21,37.96-69.21-37.96Z"/>
  <path class="st0" d="M252.14,551.37c-.56.49-1.1.98-1.64,1.47v.31h3.15s-.02-.02-.03-.04c-.52-.56-1.02-1.15-1.47-1.75"/>
  <path class="st0" d="M238.64,541.36c-.02,1.24-.02,2.48-.04,3.73h1.79c.12-.12.26-.22.36-.34,1.15-1.13,2.36-2.25,3.69-3.38h.01s-5.82-.01-5.82-.01Z"/>
  <path class="st0" d="M284.72,399.36l-5.17-2.83-2.83,5.17c1.56-2.86,5.14-3.9,8-2.33"/>
  <path class="st0" d="M775.31,404.44c-3.3,8.33-9.28,16.14-15.69,22.8l43.68-25.47c-1.89-3.45-3.87-6.85-5.9-10.22l-22.1,12.89Z"/>
  <path class="st0" d="M279.05,409.7c-2.86-1.57-3.9-5.15-2.33-8.01l-2.83,5.18,16.5,9.04-11.33-6.21Z"/>
  <polygon class="st0" points="290.39 415.92 290.39 415.92 308.42 425.81 290.39 415.92"/>
  <path class="st0" d="M798.16,391.12l-.74.43c2.03,3.37,4.01,6.78,5.9,10.22l.73-.43c-1.9-3.44-3.85-6.86-5.89-10.22"/>
  <path class="st0" d="M775.31,404.44l-49.8,29.04c1.86,4.49,3.84,8.02,5.42,10.5l28.69-16.73c6.41-6.66,12.39-14.48,15.69-22.8"/>
  <path class="st0" d="M689.92,286.08c1.79,1.03,3.55,2.09,5.32,3.16l.37-.66c-3.36-2.03-6.78-3.97-10.23-5.88l-6.37,11.29c.12.56.24,1.13.35,1.71-.49.06-.96.14-1.45.23l-22.27,39.35c.13.85.28,1.7.46,2.54,1.02,4.95,2.38,9.47,3.96,13.61l31.97-56.5c-.53-3.23-1.25-6.18-2.1-8.85"/>
  <path class="st0" d="M414.65,484.08h0l4.49,2.46c.89.49,1.87.73,2.82.73,2.09,0,4.11-1.11,5.18-3.07.39-.72.62-1.47.7-2.24.16-1.52-.29-3.05-1.24-4.26-.48-.59-1.07-1.11-1.79-1.51l-72.3-39.65c-1.73,2.82-4.04,6.11-7.07,9.58l69.21,37.96Z"/>
  <path class="st0" d="M279.05,409.7l11.33,6.21c1.39-.52,2.82-.98,4.3-1.32,5.02-1.21,10.43-1.45,15.88-1.06l-25.83-14.18h-.01c-2.86-1.57-6.43-.52-8,2.33s-.52,6.44,2.33,8.01"/>
  <path class="st0" d="M310.57,413.54l-25.85-14.18,25.85,14.18Z"/>
  <path class="st0" d="M310.57,413.54c-5.46-.39-10.87-.15-15.9,1.06-1.46.35-2.89.8-4.28,1.32l18.03,9.89,37.02,20.31c3.03-3.47,5.34-6.76,7.07-9.58l-32.85-18.02-9.09-4.98Z"/>
  <path class="st0" d="M846.65,545.08h.84c-.42-8.67-1.14-17.28-2.25-25.8.68,7.29,1.2,14.64,1.36,22.07.02,1.24.05,2.48.06,3.73"/>
  <path class="st0" d="M570.42,241.74c.99.1,1.96.26,2.95.37-.99-.12-1.96-.27-2.95-.37"/>
  <path class="st0" d="M539.91,240.11c-.2,0-.4.01-.58.01,4.9.01,9.79.13,14.63.37-4.66-.23-9.34-.38-14.05-.38"/>
  <path class="st0" d="M554.3,240.5c3.56.17,7.09.5,10.62.8-3.53-.31-7.06-.63-10.62-.8"/>
  <path class="st0" d="M686.81,280.18h0l-.95,1.7c-.6-2.72-6.94-2.4-7.95-4.83-.63-1.52-1.34-2.4-2.07-2.9-.05-.02-.08-.05-.13-.07-2.18-1.35-4.49.68-5.36-.16-12.39-5.96-25.47-10.89-38.37-15.95-29.72-9.51-60.7-14.33-92.41-14.33-40.94,0-80.65,8.01-118.03,23.83-24.28,10.28-46.89,23.56-67.56,39.62-.85.67-1.68,1.37-2.52,2.06.04.79.07,1.63.08,2.51,9.49-7.62,19.41-14.68,29.78-21.12l-.06-.09,10.11-6.08.09.17c41.89-23.83,89.99-37.88,141.23-39.11v-1.49s11.79-.16,11.79-.16v1.58c51.03.75,99.01,14.19,140.92,37.35l1.42-2.51Z"/>
  <path class="st0" d="M846.59,541.36l-2.95-16.68c-1.32-17.63-5.94-35.3-11.48-52.52,5.68,22.19,8.8,45.36,9.22,69.2h5.21Z"/>
  <path class="st0" d="M351.53,311.63c-.01-.88-.05-1.72-.08-2.5-68.13,55.99-113.51,140.42-118.94,232.22h6.11c1.64-92.8,45.36-175.47,112.92-229.72"/>
  <path class="st0" d="M677.9,277.05c1.01,2.43,7.35,2.11,7.94,4.83l.96-1.7c-3.61-2.1-7.28-4.09-10.97-6.04.73.5,1.44,1.38,2.07,2.9"/>
  <path class="st0" d="M696.91,286.28l-1.3,2.3c41.92,25.36,77.19,60.62,102.55,102.54l1.11-.65c-25.93-42.06-61.02-78-102.36-104.19"/>
  <path class="st0" d="M421.53,267.45c37.38-15.81,77.09-23.83,118.03-23.83,31.71,0,62.69,4.82,92.41,14.33,12.9,5.06,25.99,10,38.37,15.95.86.85,3.18-1.18,5.36.16-31.47-16.57-65.94-27.69-102.34-31.97-.99-.1-1.96-.27-2.95-.36-1.82-.2-3.67-.29-5.49-.45-3.54-.3-7.06-.62-10.64-.8h-.34c-4.84-.24-9.73-.36-14.63-.37-69.65.14-133.83,25.47-185.36,66.95,20.68-16.06,43.27-29.34,67.56-39.62"/>
  <path class="st0" d="M804.04,401.34c12.2,22.07,21.74,45.82,28.12,70.8,5.54,17.23,10.16,34.9,11.48,52.53l2.95,16.69c-.16-7.44-.67-14.78-1.36-22.08-5.49-42.24-19.41-82.48-39.98-118.64l-1.22.71Z"/>
  <path class="st0" d="M805.26,400.63c-1.95-3.43-3.92-6.82-5.99-10.16l-1.11.65c2.03,3.36,3.98,6.78,5.89,10.22l1.22-.71Z"/>
  <path class="st0" d="M686.81,280.18l-1.42,2.51c3.44,1.9,6.86,3.85,10.22,5.89l1.3-2.29c-3.32-2.11-6.7-4.13-10.1-6.11"/>
  <path class="st0" d="M898.05,430.2c-18.22-7.59-38.13-2.38-44.94,12.76-.15.32-.28.64-.41.96-6.54-2.72-14.39-8.13-21.62-18.76-.1-.26-.22-.52-.32-.79-10.53-24.88-24.07-48.08-40.44-69.32,3.63.72,6.92.99,9.78,1.01.78,0,1.53-.02,2.28-.05,6.4,10.22,20.24,17.39,34.12,16.02,26.51-2.62,54.5-32.84,54.5-32.84,0,0-17.46-22.44-54.4-24.15-19.72-.91-36.63,10.81-37.86,27.37-.02.35-.03.7-.03,1.05-7.14-.33-16.49-2.76-27.03-10.45-2.73-2.94-5.5-5.82-8.35-8.66-16.39-16.39-34.32-30.79-53.61-43.08,3.65-.57,6.82-1.43,9.49-2.39.73-.26,1.44-.53,2.12-.81,9.51,7.41,24.98,9.43,37.55,3.38,24.01-11.53,39.98-49.5,39.98-49.5,0,0-24.08-15.12-59.37-4.09-18.84,5.9-30.73,22.69-26.22,38.66.09.34.2.67.31,1-6.76,2.12-16.27,3.02-28.64-.48-7.06-3.65-14.27-7.02-21.63-10.14-38.8-16.42-80.01-24.73-122.49-24.73s-83.69,8.31-122.48,24.73c-26.94,11.39-51.89,26.31-74.53,44.54-14.64,2.07-46.05,8.31-62.5,25.22-13.98,14.36-16.19,37.99-6.04,51.25-9.38,14.71-17.52,30.22-24.38,46.44-.33.74-.63,1.5-.94,2.25-1.18-3.48-2.59-6.44-3.99-8.91-.38-.68-.78-1.32-1.17-1.95,5.64-10.66,4.95-26.23-3.19-37.56-15.52-21.65-55.69-30.78-55.69-30.78,0,0-10.71,26.35,6.28,59.17,9.08,17.53,27.68,26.33,42.64,19.11.31-.15.62-.31.92-.49,3.26,6.28,5.79,15.44,4.52,28.19-8.06,25.89-12.68,52.67-13.82,80.04-2.33-2.9-4.68-5.24-6.87-7.09-.59-.5-1.18-.98-1.76-1.43,1.66-11.95-4.33-26.33-15.85-34.21-21.99-15.02-62.85-9.87-62.85-9.87,0,0-1.06,28.41,26.15,53.46,5.21,4.81,11.22,8.13,17.29,9.86,6.46,1.85,13,1.89,18.81,0,3.92-1.27,7.5-3.43,10.48-6.49.24-.26.49-.51.71-.77,2.08,1.92,4.06,13.07,6.07,16.05h2.38s8.03.19,8.03.19v-8.05h.05c.89-170.72,140.01-309.32,310.92-309.32s310.04,138.6,310.93,309.32h.03v1.22c0,.14.01.29.01.43h-.01v6.42h8.79c-1.81-3.58-3.4-16.78-4.62-21.7-1.3-27.17-6.05-53.76-14.18-79.47,3.15,1.9,6.12,3.27,8.77,4.25.73.27,1.45.51,2.16.74,2.52,11.79,13.07,23.27,26.59,26.72,25.81,6.61,62.44-12.21,62.44-12.21,0,0-8.73-27.05-42.86-41.29"/>
  <path class="st0" d="M351.44,309.13c.84-.68,1.67-1.38,2.52-2.07-.84.65-1.7,1.28-2.52,1.94v.13"/>
  <path class="st0" d="M850.97,546.74c0-.15-.01-.29-.01-.43v.43h.01Z"/>
  <polygon class="st0" points="686.81 280.18 686.81 280.18 686.89 280.03 686.81 280.18"/>
  <path class="st0" d="M230.69,541.36c3.61-166.99,140.1-301.25,307.95-301.25.23,0,.45.01.69.01.2,0,.38-.01.58-.01,4.71,0,9.39.15,14.06.38h.34c3.56.19,7.09.5,10.62.8,1.83.15,3.67.27,5.49.45.99.1,1.97.26,2.95.36,144.31,16.21,258.38,132.06,271.87,277.18,1.11,8.52,1.83,17.13,2.25,25.8h3.44c-.89-170.71-140.02-309.32-310.93-309.32s-310.03,138.61-310.93,309.32h1.57c.01-1.24.03-2.48.06-3.73"/>
  <path class="st0" d="M675.83,274.14s-.09-.05-.13-.07c.03.02.08.05.13.07"/>
  <path class="st0" d="M675.83,274.14c3.69,1.95,7.36,3.94,10.97,6.04l.08-.15,10.26,5.81-.24.44c41.35,26.18,76.42,62.13,102.36,104.19l2.65-1.53,5.94,10.18-2.6,1.52c20.55,36.16,34.47,76.4,39.98,118.64-13.49-145.1-127.57-260.96-271.87-277.17,36.4,4.27,70.87,15.4,102.34,31.97.03.02.08.03.13.07"/>
  <path class="st0" d="M351.44,309.13v-.13c.82-.66,1.68-1.29,2.52-1.94,51.53-41.47,115.72-66.8,185.36-66.94-.23,0-.45-.02-.69-.02-167.85,0-304.35,134.27-307.95,301.26h1.81c5.45-91.81,50.81-176.24,118.94-232.23"/>
  <path class="st0" d="M564.92,241.29c1.83.16,3.68.26,5.49.45-1.81-.2-3.66-.3-5.49-.45"/>
  <path class="st0" d="M553.96,240.49c.12,0,.22,0,.34.01-.12-.01-.22-.01-.34-.01"/>
  <path class="st0" d="M807.86,399.11l-5.95-10.19-2.65,1.54c2.07,3.36,4.05,6.75,5.99,10.17l2.6-1.52Z"/>
  <path class="st0" d="M697.16,285.84l-10.26-5.81-.08.15c3.4,1.97,6.77,3.99,10.09,6.1l.26-.44Z"/>
  <path class="st0" d="M847.56,546.74c.09,2.14.26,4.27.3,6.42h3.09v-6.42h-3.39Z"/>
  <path class="st0" d="M850.96,545.08h-.04c.01.41.04.81.04,1.22v-1.22Z"/>
  <path class="st0" d="M229.03,546.74c0-.56.03-1.1.05-1.65h-.05v8.05l.77.02h2.16c.05-2.15.21-4.28.3-6.42h-3.23Z"/>
  <path class="st0" d="M232.25,546.74c.08-1.8.14-3.59.24-5.38h-1.81c-.02,1.24-.05,2.48-.06,3.73h-1.56c-.01.55-.05,1.09-.05,1.65h3.23Z"/>
  <path class="st0" d="M847.56,546.74h3.39v-.43c0-.42-.02-.81-.02-1.22h-3.45c.03.55.06,1.1.08,1.65"/>
</svg>